<svg width="24" height="19" viewBox="0 0 24 19" fill="none" xmlns="http://www.w3.org/2000/svg">
<path d="M23.0552 10.9172L21.8188 7.48489L21.8186 4.10053C21.8186 3.59929 21.4107 3.19117 20.9093 3.19117H20.2713L19.4193 0.826326C19.3371 0.597574 19.1708 0.414766 18.9507 0.311326C18.7311 0.208046 18.4838 0.196482 18.2553 0.278826L10.1725 3.19087H3.09055C2.58931 3.19087 2.18119 3.59883 2.18119 4.10023V6.07039L1.49199 6.31898C1.26323 6.40117 1.08043 6.56757 0.977305 6.78742C0.873869 7.00711 0.862149 7.2543 0.944649 7.48274L2.18137 10.9152V14.8265C2.18137 15.3277 2.58933 15.7358 3.09073 15.7358H3.91837L4.58057 17.5738C4.66307 17.8025 4.82916 17.985 5.04917 18.0885C5.17214 18.1463 5.3037 18.1753 5.43558 18.1753C5.53948 18.1753 5.64386 18.1572 5.74448 18.121L12.3637 15.736H20.9093C21.4105 15.736 21.8186 15.328 21.8186 14.8266V12.3291L22.5082 12.0806C22.7366 11.9985 22.9192 11.8321 23.0225 11.6122C23.1257 11.3922 23.1375 11.1454 23.0552 10.9172ZM3.08718 6.68205H20.9224V7.91969H3.08558L3.08718 6.68205ZM18.576 1.13005L19.3185 3.19129H12.8277L18.576 1.13005ZM20.9224 4.10069V5.78633H3.08798L3.09001 4.08757L20.9224 4.10069ZM2.18078 7.02317V8.24441L1.79531 7.16205L2.18078 7.02317ZM5.42298 17.27L4.87018 15.7356H9.70578L5.42298 17.27ZM20.9086 14.8398L3.07658 14.8264L3.08408 8.81557H20.9221V14.8264C20.9221 14.8337 20.9162 14.8398 20.9086 14.8398ZM21.8179 11.3768V10.1556L22.2037 11.238L21.8179 11.3768Z" fill="white"/>
</svg>
