<svg width="19" height="13" viewBox="0 0 19 13" fill="none" xmlns="http://www.w3.org/2000/svg">
<path fill-rule="evenodd" clip-rule="evenodd" d="M1.47949 0H16.912C17.3197 0 17.6906 0.165967 17.9581 0.433771C18.2255 0.701212 18.3919 1.07141 18.3919 1.47949V10.5627C18.3919 10.9708 18.2255 11.341 17.9581 11.6084C17.6906 11.8759 17.3201 12.0422 16.912 12.0422H1.47949C1.07141 12.0422 0.701193 11.8759 0.433771 11.6084C0.16633 11.341 0 10.9708 0 10.5627V1.47949C0 1.07268 0.16633 0.702499 0.434316 0.434331L0.43377 0.433784C0.701211 0.166343 1.0714 1.35211e-05 1.47949 1.35211e-05L1.47949 0ZM17.2273 10.8788L17.2267 10.8782C17.3076 10.7973 17.3579 10.6857 17.3579 10.5631V1.47985C17.3579 1.35742 17.3076 1.24575 17.2267 1.16486C17.1458 1.08397 17.0345 1.03405 16.9116 1.03405H1.47904C1.35626 1.03405 1.24458 1.08397 1.16387 1.16486L1.16333 1.16431C1.0828 1.2452 1.03307 1.35688 1.03307 1.47948V10.5627C1.03307 10.6851 1.08335 10.7968 1.16424 10.8777V10.8786C1.24421 10.9586 1.35607 11.0089 1.47922 11.0089H16.9117C17.0349 11.0089 17.1467 10.9589 17.2273 10.8786L17.2276 10.879L17.2273 10.8788Z" fill="white"/>
<path fill-rule="evenodd" clip-rule="evenodd" d="M5.95534 4.9846H12.432H12.4354C12.6147 4.9846 12.7593 4.83995 12.7593 4.66069C12.7593 4.51841 12.6677 4.3978 12.5405 4.35408L9.3269 2.9083C9.24236 2.87041 9.14617 2.87041 9.06128 2.9083L5.82269 4.36593C5.68296 4.42823 5.60681 4.57999 5.63887 4.72901C5.67093 4.8784 5.80265 4.98479 5.95532 4.98479L5.95534 4.9846ZM6.36032 8.51417C6.18142 8.51417 6.03641 8.65918 6.03641 8.83844C6.03641 9.01734 6.18106 9.16236 6.36032 9.16236H12.0278C12.2067 9.16236 12.3517 9.01734 12.3517 8.83844C12.3517 8.65955 12.2067 8.51417 12.0278 8.51417H11.9467V5.92049H12.1234C12.2832 5.92049 12.4127 5.77639 12.4127 5.59821C12.4124 5.41986 12.2832 5.27557 12.1234 5.27557H6.3403C6.18017 5.27557 6.051 5.41986 6.051 5.59821C6.051 5.7762 6.18017 5.92049 6.3403 5.92049H6.44178V8.51417H6.36032ZM7.08885 5.92049H8.06023V8.51417H7.08885V5.92049ZM8.70771 5.92049H9.67908V8.51417H8.70771V5.92049ZM10.3273 5.92049H11.2987V8.51417H10.3273V5.92049Z" fill="white"/>
</svg>
