<svg width="18" height="13" viewBox="0 0 18 13" fill="none" xmlns="http://www.w3.org/2000/svg">
<path d="M15.9301 0H2.0699C0.928572 0 0 0.912064 0 2.0331V10.9669C0 12.0879 0.928572 13 2.0699 13H15.9301C17.0714 13 18 12.0879 18 10.9669V2.0331C18.0001 0.912064 17.0714 0 15.9301 0ZM16.5422 10.9669C16.5422 11.2984 16.2677 11.568 15.9302 11.568H2.06969C1.73219 11.568 1.45774 11.2984 1.45774 10.9669V4.93265H16.5423L16.5424 10.9669H16.5422ZM16.5422 3.50062H1.45767V2.03303C1.45767 1.70153 1.73212 1.43196 2.06962 1.43196H15.9302C16.2677 1.43196 16.5421 1.70153 16.5421 2.03303V3.50062H16.5422ZM11.6796 5.91904H2.47823V7.35107H11.6796V5.91904ZM5.52395 8.08307H2.47816V9.5151H5.52395V8.08307ZM15.6324 5.91904H12.6515V7.35107H15.6324V5.91904Z" fill="white"/>
</svg>
