<svg width="18" height="18" viewBox="0 0 18 18" fill="none" xmlns="http://www.w3.org/2000/svg">
<path d="M17.3573 16.6894H9.13756L17.1689 8.50367C17.4942 8.1724 17.6768 7.7231 17.6768 7.25437C17.6768 6.78576 17.4942 6.33632 17.1689 6.00507L11.7692 0.501225C11.439 0.179613 11 0 10.5432 0C10.0865 0 9.64721 0.179601 9.31719 0.501225L0.831466 9.15013C0.506162 9.4814 0.323499 9.93085 0.323499 10.3994C0.323499 10.8682 0.506169 11.3175 0.831466 11.6487L1.98747 12.8273L1.98848 12.8287L1.98991 12.8298L5.77653 16.6896H0.642849C0.413113 16.6896 0.200893 16.8145 0.086097 17.0172C-0.028699 17.2199 -0.028699 17.4697 0.086097 17.6724C0.200893 17.8751 0.413121 18 0.642849 18H17.3572C17.5869 18 17.7991 17.8751 17.9139 17.6724C18.0287 17.4697 18.0287 17.2199 17.9139 17.0172C17.7991 16.8145 17.5869 16.6896 17.3572 16.6896L17.3573 16.6894ZM16.3912 7.25463C16.3914 7.37559 16.3442 7.49171 16.26 7.57713L7.77392 16.226C7.5967 16.3988 7.3176 16.3988 7.14039 16.226L3.3523 12.3651L12.4717 3.06996L16.2602 6.93164C16.3444 7.0172 16.3916 7.13362 16.3912 7.25486L16.3912 7.25463ZM1.6091 10.3988C1.60882 10.2779 1.65602 10.1618 1.74026 10.0763L10.2263 1.42743C10.3104 1.34187 10.4244 1.29376 10.5432 1.29376C10.662 1.29376 10.7759 1.34188 10.8599 1.42743L11.5623 2.14349L2.44289 11.4383L1.74019 10.722C1.65596 10.6365 1.6086 10.5201 1.60903 10.3988L1.6091 10.3988Z" fill="white"/>
</svg>
