<svg width="69" height="36" viewBox="0 0 69 36" fill="none" xmlns="http://www.w3.org/2000/svg">
<path d="M28.7046 32.0935C28.7072 32.2246 28.6834 32.3549 28.6344 32.4765C28.5896 32.5875 28.5212 32.6874 28.4339 32.7693C28.3401 32.8524 28.2302 32.9152 28.111 32.9538C27.9664 33.002 27.8143 33.0244 27.6619 33.02H27.3391V34.0487C27.3421 34.0585 27.3421 34.069 27.3391 34.0788C27.3322 34.0897 27.3215 34.0976 27.309 34.1008C27.2902 34.1078 27.2707 34.1126 27.2508 34.1149C27.2288 34.1149 27.1967 34.1149 27.1606 34.1149C27.1305 34.1164 27.1004 34.1164 27.0704 34.1149C27.0505 34.1123 27.031 34.1076 27.0122 34.1008C27.0058 34.0999 26.9997 34.0973 26.9945 34.0935C26.9892 34.0897 26.985 34.0846 26.9821 34.0788C26.9789 34.069 26.9789 34.0585 26.9821 34.0487V31.4238C26.9794 31.4007 26.982 31.3774 26.9896 31.3555C26.9972 31.3336 27.0098 31.3137 27.0263 31.2974C27.0557 31.2734 27.0926 31.2606 27.1305 31.2613H27.7321C27.7922 31.2613 27.8504 31.2613 27.9065 31.2613C27.9741 31.2674 28.0412 31.2788 28.107 31.2954C28.1901 31.3139 28.2699 31.345 28.3436 31.3877C28.419 31.4327 28.4867 31.4896 28.5442 31.5561C28.6012 31.6256 28.6447 31.7052 28.6725 31.7907C28.703 31.886 28.7179 31.9855 28.7166 32.0855L28.7046 32.0935ZM28.3156 32.1156C28.3195 32.0148 28.2974 31.9146 28.2514 31.8248C28.215 31.7542 28.1603 31.6946 28.093 31.6524C28.0319 31.6147 27.9636 31.5901 27.8925 31.5802C27.8261 31.57 27.7591 31.5646 27.692 31.5641H27.3431V32.7031H27.6839C27.7795 32.7063 27.8747 32.6913 27.9647 32.659C28.0397 32.6345 28.1082 32.5934 28.1652 32.5387C28.2171 32.485 28.2568 32.4207 28.2815 32.3502C28.3029 32.2767 28.3117 32.2001 28.3075 32.1236L28.3156 32.1156Z" fill="#333333"/>
<path d="M31.4136 32.9718C31.4157 32.994 31.413 33.0164 31.4057 33.0375C31.3985 33.0586 31.3868 33.0779 31.3714 33.0941C31.3442 33.1177 31.3092 33.1305 31.2732 33.1302H29.9759C29.9755 33.2294 29.9863 33.3282 30.0079 33.425C30.0286 33.5073 30.0662 33.5845 30.1182 33.6516C30.1721 33.7156 30.241 33.7652 30.3187 33.796C30.4145 33.8332 30.5168 33.851 30.6195 33.8481C30.7031 33.8494 30.7866 33.8407 30.8682 33.822C30.9363 33.811 31.0034 33.7942 31.0687 33.7719L31.201 33.7218C31.2247 33.7092 31.2506 33.701 31.2772 33.6977C31.287 33.6947 31.2975 33.6947 31.3073 33.6977C31.3143 33.7042 31.3203 33.7116 31.3253 33.7198C31.3276 33.7344 31.3276 33.7493 31.3253 33.7639C31.3276 33.7859 31.3276 33.8081 31.3253 33.8301C31.3277 33.846 31.3277 33.8622 31.3253 33.8782C31.3264 33.8909 31.3264 33.9036 31.3253 33.9163C31.3238 33.9265 31.3197 33.9362 31.3133 33.9444C31.3085 33.9538 31.3024 33.9626 31.2953 33.9704C31.2736 33.9878 31.2492 34.0013 31.2231 34.0105C31.1728 34.0318 31.1212 34.0499 31.0687 34.0647C30.9974 34.084 30.9251 34.0994 30.8521 34.1108C30.7647 34.1256 30.6761 34.133 30.5874 34.1328C30.4428 34.1359 30.2988 34.1128 30.1623 34.0647C30.0455 34.0222 29.9399 33.9536 29.8536 33.8641C29.767 33.7672 29.7033 33.6521 29.6671 33.5272C29.5802 33.2239 29.5802 32.9022 29.6671 32.5988C29.7095 32.4718 29.7777 32.3551 29.8676 32.2559C29.9493 32.1618 30.0515 32.0877 30.1664 32.0393C30.2902 31.9878 30.4233 31.9626 30.5574 31.9651C30.6947 31.9596 30.8316 31.9842 30.9584 32.0373C31.062 32.0828 31.1539 32.1514 31.2271 32.2378C31.2978 32.325 31.3509 32.4252 31.3835 32.5326C31.4156 32.6516 31.4311 32.7744 31.4296 32.8976L31.4136 32.9718ZM31.0506 32.8655C31.0637 32.7055 31.0189 32.5461 30.9243 32.4163C30.8747 32.3601 30.8125 32.3162 30.7429 32.2884C30.6732 32.2605 30.598 32.2494 30.5233 32.2559C30.4415 32.2528 30.3602 32.27 30.2867 32.306C30.2219 32.338 30.1646 32.383 30.1182 32.4384C30.0703 32.4981 30.0336 32.5661 30.01 32.6389C29.9864 32.7143 29.9729 32.7926 29.9699 32.8715L31.0506 32.8655Z" fill="#333333"/>
<path d="M33.6934 32.1999C33.6934 32.232 33.6934 32.258 33.6934 32.2801C33.6934 32.3021 33.6934 32.3202 33.6934 32.3322L33.6753 32.3603C33.6715 32.3644 33.6668 32.3676 33.6616 32.3697C33.6564 32.3717 33.6508 32.3726 33.6453 32.3723C33.6312 32.371 33.6176 32.3669 33.6051 32.3603L33.549 32.3402C33.5269 32.3402 33.5009 32.3402 33.4768 32.3222C33.4488 32.3191 33.4206 32.3191 33.3926 32.3222C33.3548 32.3223 33.3173 32.3298 33.2823 32.3442C33.242 32.3622 33.2053 32.3873 33.174 32.4184C33.1277 32.457 33.086 32.5007 33.0497 32.5488C33.0096 32.6069 32.9635 32.6731 32.9114 32.7493V34.0487C32.9111 34.0602 32.9077 34.0713 32.9013 34.0808C32.894 34.09 32.8843 34.0969 32.8733 34.1009C32.8564 34.107 32.8389 34.111 32.8211 34.1129C32.7904 34.1153 32.7596 34.1153 32.7289 34.1129C32.7002 34.1154 32.6714 34.1154 32.6427 34.1129C32.6229 34.1109 32.6035 34.1069 32.5845 34.1009C32.5743 34.0964 32.5654 34.0895 32.5585 34.0808C32.5564 34.0702 32.5564 34.0593 32.5585 34.0487V32.0755C32.5574 32.0662 32.5574 32.0568 32.5585 32.0475C32.5642 32.0372 32.5734 32.0293 32.5845 32.0254C32.6007 32.019 32.6175 32.0143 32.6347 32.0114H32.7971C32.8142 32.0143 32.831 32.019 32.8472 32.0254C32.8568 32.0296 32.8649 32.0366 32.8703 32.0456C32.8757 32.0546 32.8781 32.0651 32.8773 32.0755V32.3643C32.9229 32.2931 32.9745 32.226 33.0317 32.1638C33.0716 32.1204 33.1159 32.0814 33.164 32.0475C33.203 32.0214 33.2455 32.0011 33.2903 31.9873C33.3317 31.9776 33.3741 31.9729 33.4167 31.9733H33.4828C33.5079 31.9748 33.5328 31.9788 33.557 31.9853C33.5804 31.9905 33.6032 31.9979 33.6252 32.0074C33.6426 32.0101 33.6591 32.017 33.6733 32.0274L33.6914 32.0475C33.6925 32.0561 33.6925 32.0649 33.6914 32.0735C33.693 32.0882 33.693 32.103 33.6914 32.1176V32.1979" fill="#333333"/>
<path d="M35.8489 33.5072C35.8512 33.5999 35.8319 33.6919 35.7928 33.7759C35.757 33.8546 35.7026 33.9234 35.6344 33.9764C35.5614 34.0325 35.4784 34.074 35.3897 34.0988C35.288 34.1277 35.1827 34.1419 35.0769 34.1409C35.0097 34.1418 34.9426 34.1365 34.8764 34.1248C34.8181 34.1143 34.7605 34.1003 34.704 34.0827C34.6609 34.0678 34.6187 34.0504 34.5777 34.0306C34.5492 34.019 34.5233 34.002 34.5015 33.9804C34.4836 33.964 34.4716 33.9422 34.4674 33.9183C34.4562 33.884 34.4515 33.848 34.4533 33.812C34.4511 33.788 34.4511 33.7638 34.4533 33.7398C34.4566 33.7249 34.4606 33.7102 34.4654 33.6957C34.4654 33.6837 34.4654 33.6756 34.4854 33.6716C34.4931 33.6685 34.5018 33.6685 34.5095 33.6716C34.5354 33.6739 34.5603 33.6829 34.5817 33.6977L34.698 33.7659C34.7512 33.7912 34.8061 33.8126 34.8624 33.8301C34.9327 33.8505 35.0057 33.86 35.0789 33.8581C35.1357 33.8591 35.1924 33.8524 35.2474 33.8381C35.2923 33.8264 35.3349 33.8074 35.3737 33.7819C35.409 33.7564 35.4384 33.7235 35.4599 33.6857C35.479 33.6407 35.4886 33.5922 35.488 33.5433C35.4897 33.4935 35.4741 33.4446 35.4439 33.4049C35.415 33.3625 35.3765 33.3275 35.3316 33.3027C35.2824 33.2711 35.23 33.2448 35.1752 33.2245L34.9947 33.1523C34.9323 33.1279 34.8713 33.0998 34.8123 33.068C34.754 33.0381 34.7006 32.9996 34.6539 32.9537C34.6056 32.9075 34.5668 32.8523 34.5396 32.7913C34.5114 32.7192 34.4978 32.6421 34.4995 32.5647C34.4994 32.4883 34.5143 32.4127 34.5436 32.3421C34.5741 32.2708 34.62 32.2072 34.6779 32.1556C34.7446 32.0999 34.8206 32.0564 34.9025 32.0273C35.0034 31.9943 35.1092 31.9787 35.2153 31.9812C35.268 31.9771 35.321 31.9771 35.3737 31.9812C35.4258 31.9932 35.474 32.0012 35.5161 32.0153C35.553 32.0269 35.5892 32.041 35.6243 32.0574C35.6486 32.0687 35.6715 32.0828 35.6925 32.0995C35.7047 32.1086 35.7155 32.1194 35.7246 32.1316C35.726 32.1409 35.726 32.1503 35.7246 32.1596C35.7261 32.1736 35.7261 32.1878 35.7246 32.2018C35.727 32.2217 35.727 32.2419 35.7246 32.2619C35.7267 32.2833 35.7267 32.3047 35.7246 32.3261C35.724 32.3415 35.7199 32.3566 35.7126 32.3702C35.7094 32.38 35.7031 32.3885 35.6945 32.3943C35.691 32.3957 35.6873 32.3965 35.6835 32.3965C35.6797 32.3965 35.676 32.3957 35.6725 32.3943C35.6515 32.3922 35.6314 32.3846 35.6143 32.3722C35.5841 32.3522 35.5518 32.3354 35.5181 32.3221C35.4731 32.2997 35.4261 32.2815 35.3777 32.2679C35.3189 32.252 35.2582 32.2439 35.1972 32.2439C35.1425 32.2436 35.0879 32.2503 35.0348 32.2639C34.9927 32.2765 34.9532 32.2969 34.9185 32.3241C34.8891 32.3493 34.8658 32.3808 34.8504 32.4163C34.8357 32.452 34.8282 32.4901 34.8283 32.5286C34.8273 32.5802 34.8427 32.6308 34.8724 32.673C34.9036 32.7141 34.9424 32.7488 34.9867 32.7753C35.0369 32.8077 35.0907 32.8339 35.1471 32.8535L35.3276 32.9257C35.3912 32.9504 35.4534 32.9785 35.5141 33.0099C35.5727 33.0394 35.6267 33.0772 35.6745 33.1222C35.7206 33.1683 35.7585 33.2218 35.7868 33.2806C35.8167 33.3495 35.831 33.4241 35.8289 33.4992" fill="#333333"/>
<path d="M38.7764 33.0461C38.7773 33.196 38.7563 33.3453 38.7142 33.4892C38.6761 33.6183 38.6112 33.7379 38.5238 33.8402C38.437 33.9388 38.3295 34.0168 38.2089 34.0688C38.0697 34.1257 37.9203 34.1537 37.7698 34.151C37.6255 34.1545 37.4818 34.1299 37.3467 34.0788C37.2325 34.0357 37.1297 33.9671 37.046 33.8783C36.9619 33.7813 36.9003 33.6669 36.8655 33.5434C36.8226 33.3976 36.8023 33.2461 36.8053 33.0942C36.8048 32.9436 36.8257 32.7937 36.8675 32.649C36.9083 32.5221 36.9722 32.4038 37.056 32.3001C37.1415 32.2016 37.2485 32.124 37.3688 32.0735C37.5092 32.0159 37.6602 31.9886 37.8119 31.9933C37.9563 31.9895 38.1 32.014 38.235 32.0655C38.3509 32.1102 38.4541 32.1825 38.5358 32.276C38.6188 32.3737 38.6803 32.4878 38.7163 32.6109C38.7581 32.7556 38.7783 32.9056 38.7764 33.0561V33.0461ZM38.4034 33.0802C38.4032 32.9777 38.3925 32.8756 38.3714 32.7754C38.3546 32.6873 38.322 32.6031 38.2751 32.5267C38.2275 32.455 38.1627 32.3964 38.0866 32.3563C37.9966 32.311 37.8965 32.2896 37.7959 32.2941C37.701 32.2915 37.6069 32.3115 37.5212 32.3522C37.4424 32.3888 37.3736 32.4438 37.3207 32.5127C37.2699 32.5877 37.2333 32.6712 37.2124 32.7593C37.1858 32.8607 37.173 32.9653 37.1743 33.0701C37.1737 33.1732 37.1838 33.276 37.2044 33.3769C37.2207 33.4651 37.2548 33.5491 37.3046 33.6236C37.3489 33.6954 37.412 33.7536 37.4871 33.792C37.577 33.8324 37.6743 33.8532 37.7728 33.8532C37.8713 33.8532 37.9687 33.8324 38.0586 33.792C38.1342 33.7559 38.1997 33.7014 38.2491 33.6336C38.302 33.5596 38.3395 33.4758 38.3593 33.387C38.3894 33.2806 38.4042 33.1706 38.4034 33.0601V33.0802Z" fill="#333333"/>
<path d="M41.5837 34.0485C41.5866 34.059 41.5866 34.0701 41.5837 34.0806C41.5767 34.0902 41.5669 34.0972 41.5556 34.1006C41.5381 34.1067 41.5199 34.1107 41.5015 34.1127C41.4728 34.1151 41.4439 34.1151 41.4152 34.1127C41.3852 34.1151 41.355 34.1151 41.325 34.1127C41.3059 34.1107 41.2871 34.1067 41.2689 34.1006C41.2578 34.0966 41.2481 34.0897 41.2408 34.0806C41.2354 34.0707 41.232 34.0598 41.2308 34.0485V32.8935C41.2334 32.8027 41.226 32.7119 41.2087 32.6227C41.1907 32.56 41.1644 32.5 41.1305 32.4443C41.0982 32.3956 41.0531 32.3568 41.0002 32.332C40.9427 32.3041 40.8795 32.2904 40.8157 32.2919C40.7167 32.2933 40.6209 32.3271 40.543 32.3881C40.4354 32.4687 40.3395 32.5638 40.2583 32.6709V34.0485C40.2613 34.059 40.2613 34.0701 40.2583 34.0806C40.2497 34.0893 40.2395 34.0961 40.2282 34.1006C40.2107 34.1067 40.1925 34.1107 40.174 34.1127C40.144 34.1152 40.1138 34.1152 40.0838 34.1127C40.0551 34.115 40.0263 34.115 39.9976 34.1127C39.9785 34.1105 39.9597 34.1064 39.9414 34.1006C39.9299 34.0966 39.9195 34.0897 39.9114 34.0806C39.9093 34.07 39.9093 34.0591 39.9114 34.0485V32.0753C39.9093 32.066 39.9093 32.0565 39.9114 32.0472C39.9114 32.0372 39.9274 32.0312 39.9374 32.0252C39.9536 32.0188 39.9704 32.0141 39.9876 32.0111H40.15C40.1672 32.0138 40.184 32.0185 40.2001 32.0252C40.2098 32.0297 40.2176 32.0375 40.2222 32.0472C40.2284 32.0553 40.2319 32.0651 40.2322 32.0753V32.338C40.3243 32.227 40.4365 32.1344 40.563 32.0653C40.6659 32.0094 40.7809 31.9798 40.8979 31.979C41.0115 31.9762 41.1244 31.9981 41.2288 32.0432C41.3147 32.0846 41.3891 32.1466 41.4453 32.2237C41.5023 32.302 41.5438 32.3905 41.5676 32.4844C41.5918 32.6031 41.6033 32.7241 41.6017 32.8453L41.5837 34.0485Z" fill="#333333"/>
<path d="M44.3066 34.0486C44.3069 34.0558 44.3057 34.0629 44.3029 34.0695C44.3001 34.0761 44.2959 34.082 44.2906 34.0867C44.2751 34.0961 44.2581 34.1029 44.2404 34.1068C44.2104 34.1096 44.1802 34.1096 44.1502 34.1068C44.1202 34.1095 44.09 34.1095 44.06 34.1068C44.0424 34.1046 44.0258 34.0976 44.0119 34.0867C44.0059 34.0824 44.0011 34.0766 43.998 34.07C43.9948 34.0633 43.9934 34.056 43.9938 34.0486V33.8481C43.9126 33.9365 43.8153 34.0087 43.7071 34.0607C43.6031 34.1127 43.4884 34.1395 43.3722 34.1389C43.2757 34.14 43.1796 34.1258 43.0875 34.0968C43.0095 34.0728 42.9372 34.0332 42.8749 33.9805C42.8158 33.9283 42.7686 33.864 42.7366 33.792C42.7023 33.7108 42.6853 33.6234 42.6865 33.5353C42.684 33.4354 42.7075 33.3366 42.7546 33.2485C42.804 33.1663 42.8729 33.0974 42.9551 33.048C43.0513 32.9908 43.1564 32.9502 43.2659 32.9277C43.4018 32.8998 43.5403 32.8863 43.679 32.8876H43.9497V32.7352C43.9503 32.6676 43.9423 32.6002 43.9256 32.5346C43.9135 32.4812 43.8872 32.432 43.8494 32.3923C43.8103 32.3516 43.7623 32.3207 43.7091 32.302C43.6441 32.2823 43.5765 32.2721 43.5086 32.2719C43.4271 32.271 43.346 32.2825 43.2679 32.306C43.2039 32.3222 43.142 32.3457 43.0835 32.3762C43.0372 32.3966 42.9923 32.4201 42.9491 32.4464C42.9244 32.4631 42.8964 32.474 42.8669 32.4785C42.8571 32.4813 42.8467 32.4813 42.8368 32.4785C42.8281 32.4711 42.8206 32.4623 42.8148 32.4524C42.8069 32.4382 42.8021 32.4225 42.8007 32.4063C42.7996 32.3869 42.7996 32.3675 42.8007 32.3482C42.7981 32.3188 42.7981 32.2893 42.8007 32.2599C42.8079 32.2374 42.821 32.2173 42.8388 32.2018C42.8694 32.1742 42.9039 32.1512 42.9411 32.1336C42.9944 32.1053 43.0501 32.0818 43.1075 32.0634C43.1729 32.0408 43.2399 32.0234 43.308 32.0113C43.3828 31.9975 43.4586 31.9908 43.5346 31.9912C43.6566 31.9879 43.7783 32.0035 43.8956 32.0373C43.9862 32.0658 44.0691 32.1145 44.1382 32.1797C44.2006 32.2445 44.2461 32.3237 44.2705 32.4103C44.2993 32.5162 44.3135 32.6255 44.3126 32.7352L44.3066 34.0486ZM43.9457 33.1463H43.6389C43.552 33.1453 43.4652 33.154 43.3802 33.1723C43.3154 33.1857 43.2536 33.2109 43.1978 33.2465C43.1532 33.2767 43.1167 33.3173 43.0915 33.3648C43.0673 33.4148 43.055 33.4697 43.0554 33.5253C43.0534 33.5706 43.0613 33.6158 43.0787 33.6577C43.096 33.6996 43.1223 33.7372 43.1557 33.7679C43.2308 33.8335 43.3288 33.8667 43.4284 33.8601C43.5208 33.8602 43.6116 33.8352 43.691 33.788C43.7865 33.7277 43.8724 33.6533 43.9457 33.5674V33.1463Z" fill="#333333"/>
<path d="M45.9087 34.0488C45.9108 34.0594 45.9108 34.0703 45.9087 34.0809C45.901 34.0905 45.8905 34.0975 45.8786 34.1009C45.861 34.1067 45.8429 34.1108 45.8245 34.1129C45.7945 34.1154 45.7643 34.1154 45.7342 34.1129C45.7049 34.1153 45.6754 34.1153 45.646 34.1129C45.6282 34.111 45.6107 34.107 45.5939 34.1009C45.5818 34.098 45.5711 34.0909 45.5638 34.0809C45.5608 34.0704 45.5608 34.0592 45.5638 34.0488V31.113C45.5606 31.1039 45.5606 31.094 45.5638 31.0849C45.5667 31.0791 45.5709 31.074 45.5761 31.0702C45.5814 31.0664 45.5875 31.0638 45.5939 31.0629C45.6103 31.0551 45.6279 31.0503 45.646 31.0488H45.7342H45.8245C45.8432 31.0506 45.8614 31.0554 45.8786 31.0629C45.8849 31.0641 45.8909 31.0668 45.8961 31.0706C45.9013 31.0744 45.9056 31.0793 45.9087 31.0849C45.911 31.0942 45.911 31.1038 45.9087 31.113V34.0488Z" fill="#333333"/>
<path d="M48.6478 33.3528C48.6489 33.2756 48.6596 33.1988 48.6798 33.1242C48.7043 33.0488 48.7394 32.9772 48.7841 32.9116C48.8349 32.8357 48.8971 32.7681 48.9686 32.7111C49.0529 32.6367 49.1435 32.5696 49.2393 32.5106C49.1859 32.4425 49.1364 32.3716 49.0909 32.298C49.052 32.24 49.0165 32.1797 48.9846 32.1176C48.961 32.0673 48.9422 32.0149 48.9285 31.9611C48.9163 31.9106 48.9109 31.8587 48.9124 31.8067C48.9118 31.7179 48.9267 31.6297 48.9565 31.546C48.9876 31.4622 49.0385 31.3872 49.1049 31.3275C49.18 31.2591 49.2689 31.2078 49.3656 31.1771C49.4912 31.1366 49.6227 31.1176 49.7546 31.1209C49.8676 31.1183 49.9803 31.1318 50.0895 31.161C50.1738 31.1852 50.2528 31.2254 50.322 31.2793C50.3827 31.3289 50.4308 31.3921 50.4624 31.4638C50.4954 31.5411 50.5118 31.6245 50.5105 31.7085C50.5129 31.7905 50.4985 31.8721 50.4681 31.9483C50.4378 32.0245 50.3921 32.0937 50.3341 32.1516C50.2635 32.2277 50.1841 32.2951 50.0975 32.3522C49.986 32.4249 49.8709 32.4918 49.7526 32.5527C49.8007 32.6129 49.8569 32.675 49.913 32.7412L50.0955 32.9417L50.296 33.1423C50.3601 33.2044 50.4263 33.2646 50.4965 33.3247C50.5266 33.2817 50.5528 33.2361 50.5747 33.1884C50.5968 33.1403 50.6168 33.0841 50.6369 33.028C50.6537 32.9723 50.6657 32.9152 50.6729 32.8575C50.6832 32.7986 50.6885 32.7389 50.689 32.679V32.6008C50.6866 32.5889 50.6866 32.5766 50.689 32.5647C50.695 32.5537 50.7041 32.5447 50.7151 32.5387C50.7318 32.5318 50.7493 32.527 50.7672 32.5246C50.8239 32.5193 50.8809 32.5193 50.9376 32.5246C50.9562 32.5211 50.9752 32.5211 50.9938 32.5246C51.0002 32.5262 51.0063 32.5292 51.0114 32.5334C51.0166 32.5375 51.0209 32.5427 51.0238 32.5487C51.0309 32.563 51.0343 32.5789 51.0339 32.5948V32.649C51.0343 32.7296 51.0275 32.8101 51.0138 32.8896C51.0006 32.9679 50.9812 33.045 50.9557 33.1202C50.9338 33.1959 50.9042 33.2691 50.8674 33.3388C50.8321 33.4045 50.7919 33.4675 50.7471 33.5273C50.8133 33.5814 50.8695 33.6255 50.9176 33.6596C50.9657 33.6937 51.0098 33.7218 51.0439 33.7438C51.0702 33.7638 51.0993 33.7801 51.1301 33.792C51.1481 33.799 51.167 33.8031 51.1863 33.804H51.2264C51.2314 33.8018 51.2369 33.8007 51.2424 33.8007C51.2479 33.8007 51.2534 33.8018 51.2585 33.804C51.2692 33.8124 51.2764 33.8246 51.2785 33.8381C51.281 33.8648 51.281 33.8916 51.2785 33.9183V34.0065C51.2804 34.0225 51.2804 34.0387 51.2785 34.0547C51.2752 34.0655 51.2689 34.0752 51.2605 34.0827C51.2455 34.0931 51.2283 34.1 51.2103 34.1028C51.1801 34.11 51.1491 34.1134 51.1181 34.1128C51.0867 34.1124 51.0556 34.107 51.0259 34.0968C50.9818 34.0838 50.9394 34.0656 50.8995 34.0426C50.8534 34.0166 50.7993 33.9805 50.7371 33.9384C50.675 33.8962 50.6028 33.8401 50.5186 33.7719C50.4543 33.8217 50.3873 33.8678 50.318 33.9103C50.249 33.9523 50.1765 33.9886 50.1015 34.0186C50.0232 34.048 49.9427 34.0715 49.8609 34.0888C49.7705 34.1071 49.6784 34.1159 49.5862 34.1148C49.4986 34.1154 49.4112 34.1067 49.3255 34.0888C49.2466 34.0763 49.1697 34.0534 49.0969 34.0206C49.0292 33.9933 48.9663 33.9553 48.9104 33.9083C48.8564 33.8633 48.8085 33.8114 48.7681 33.7539C48.7283 33.6918 48.6979 33.6242 48.6778 33.5533C48.6576 33.4781 48.6469 33.4006 48.6458 33.3227L48.6478 33.3528ZM49.0468 33.2846C49.0461 33.3532 49.0583 33.4212 49.0829 33.4852C49.1094 33.5471 49.1491 33.6025 49.1992 33.6476C49.2519 33.6969 49.3149 33.7338 49.3836 33.7559C49.4675 33.7813 49.5547 33.7935 49.6423 33.792C49.701 33.7931 49.7596 33.7871 49.8168 33.7739C49.8733 33.7626 49.9285 33.7452 49.9812 33.7218C50.0329 33.7019 50.0826 33.6771 50.1296 33.6476C50.1737 33.6183 50.2159 33.5861 50.2559 33.5513C50.1817 33.4852 50.1055 33.419 50.0313 33.3508C49.9571 33.2826 49.8809 33.2104 49.8127 33.1382C49.7446 33.0661 49.6744 32.9959 49.6122 32.9237C49.5501 32.8515 49.4879 32.7833 49.4358 32.7232C49.371 32.7645 49.3099 32.8115 49.2533 32.8635C49.2072 32.9035 49.1673 32.9501 49.135 33.0019C49.1069 33.0449 49.0847 33.0914 49.0688 33.1403C49.0508 33.1967 49.0413 33.2555 49.0408 33.3147L49.0468 33.2846ZM49.2994 31.7586C49.2998 31.7994 49.3059 31.8399 49.3175 31.8789C49.3296 31.9234 49.3464 31.9664 49.3676 32.0073C49.3922 32.0567 49.4203 32.1043 49.4518 32.1496C49.4839 32.2018 49.522 32.2579 49.5681 32.3221C49.6744 32.2619 49.7686 32.2058 49.8368 32.1557C49.8981 32.1123 49.9558 32.064 50.0092 32.0113C50.0505 31.9711 50.0827 31.9226 50.1035 31.8689C50.1246 31.8223 50.1349 31.7716 50.1336 31.7205C50.1341 31.6789 50.1273 31.6375 50.1135 31.5982C50.0955 31.5597 50.0703 31.525 50.0393 31.4959C50.0017 31.4636 49.9581 31.4391 49.911 31.4237C49.8522 31.4042 49.7905 31.3947 49.7285 31.3956C49.6603 31.3941 49.5924 31.405 49.528 31.4277C49.4796 31.4444 49.4352 31.471 49.3977 31.5059C49.3642 31.5383 49.3387 31.5782 49.3235 31.6222C49.3017 31.675 49.2915 31.7317 49.2934 31.7887L49.2994 31.7586Z" fill="#333333"/>
<path d="M55.9103 33.6976C55.9103 33.7217 55.9103 33.7398 55.9103 33.7578C55.9138 33.7737 55.9138 33.7901 55.9103 33.8059C55.9074 33.8186 55.9027 33.8307 55.8963 33.842L55.8662 33.8781C55.8378 33.9029 55.8076 33.9257 55.776 33.9463C55.7196 33.9798 55.6606 34.0086 55.5995 34.0325C55.5229 34.0633 55.4437 34.0875 55.3629 34.1047C55.2653 34.1248 55.1658 34.1342 55.0662 34.1328C54.8959 34.1355 54.7268 34.1041 54.5689 34.0406C54.4238 33.981 54.2947 33.8883 54.1919 33.7698C54.0804 33.6404 53.9976 33.4886 53.9493 33.3247C53.8904 33.1297 53.862 32.9267 53.8651 32.7231C53.8619 32.5098 53.8924 32.2973 53.9553 32.0934C54.0103 31.9231 54.0966 31.7646 54.21 31.6262C54.3202 31.4995 54.4572 31.3988 54.611 31.3314C54.7717 31.2645 54.9442 31.2304 55.1183 31.2311C55.1986 31.2306 55.2787 31.2393 55.3569 31.2572C55.4308 31.2694 55.5034 31.2889 55.5735 31.3154C55.6347 31.3347 55.6933 31.3617 55.7479 31.3956C55.7851 31.4176 55.8206 31.4424 55.8542 31.4698L55.8923 31.5139C55.8984 31.5251 55.9024 31.5373 55.9043 31.55C55.9088 31.5664 55.9122 31.5832 55.9144 31.6001C55.9155 31.6228 55.9155 31.6456 55.9144 31.6683C55.9144 31.6984 55.9144 31.7204 55.9144 31.7425C55.9116 31.7603 55.9069 31.7778 55.9003 31.7946C55.8958 31.8059 55.8889 31.8162 55.8803 31.8247C55.8713 31.8307 55.8609 31.8341 55.8502 31.8347C55.818 31.8291 55.7881 31.8145 55.764 31.7926C55.7186 31.7582 55.671 31.7267 55.6216 31.6984C55.5547 31.66 55.4842 31.6284 55.4111 31.6041C55.3146 31.5731 55.2136 31.5589 55.1123 31.562C54.9956 31.5598 54.8801 31.5856 54.7754 31.6372C54.6707 31.6888 54.58 31.7648 54.5108 31.8588C54.4319 31.9667 54.3741 32.0885 54.3403 32.2177C54.2614 32.5331 54.2614 32.863 54.3403 33.1783C54.3735 33.3037 54.4307 33.4215 54.5087 33.5252C54.5785 33.6143 54.6705 33.6834 54.7754 33.7257C54.8883 33.7761 55.0108 33.8014 55.1343 33.7999C55.235 33.801 55.3351 33.7861 55.4311 33.7558C55.5063 33.7336 55.5784 33.7019 55.6457 33.6616C55.6966 33.6344 55.7456 33.6036 55.792 33.5693C55.8179 33.548 55.8491 33.5341 55.8823 33.5292C55.8907 33.526 55.8999 33.526 55.9083 33.5292C55.9168 33.5359 55.9231 33.545 55.9264 33.5553C55.9281 33.5719 55.9281 33.5887 55.9264 33.6054C55.9264 33.6275 55.9264 33.6555 55.9264 33.6896" fill="#333333"/>
<path d="M58.4288 34.0486C58.4291 34.0558 58.4279 34.0629 58.4251 34.0695C58.4223 34.0761 58.4181 34.082 58.4128 34.0867C58.3982 34.0965 58.3818 34.1033 58.3646 34.1068C58.3346 34.1096 58.3044 34.1096 58.2744 34.1068C58.2444 34.1095 58.2142 34.1095 58.1842 34.1068C58.1661 34.1041 58.149 34.0972 58.1341 34.0867C58.1291 34.0818 58.1252 34.0758 58.1228 34.0692C58.1204 34.0627 58.1194 34.0556 58.12 34.0486V33.8481C58.0369 33.9353 57.9392 34.0072 57.8313 34.0607C57.7265 34.1122 57.6112 34.139 57.4944 34.1389C57.3992 34.1402 57.3044 34.1259 57.2137 34.0968C57.1345 34.0728 57.0609 34.0332 56.9971 33.9805C56.9386 33.9287 56.8926 33.8642 56.8628 33.792C56.8268 33.7113 56.809 33.6236 56.8107 33.5353C56.8088 33.4352 56.833 33.3364 56.8808 33.2485C56.9298 33.166 56.9988 33.097 57.0814 33.048C57.1784 32.9912 57.2841 32.9506 57.3942 32.9277C57.5301 32.9 57.6685 32.8865 57.8072 32.8876H58.0779V32.7352C58.0795 32.6675 58.0714 32.6 58.0538 32.5346C58.0397 32.481 58.0125 32.4318 57.9747 32.3912C57.9369 32.3506 57.8897 32.32 57.8373 32.302C57.7723 32.2821 57.7047 32.272 57.6368 32.2719C57.5546 32.271 57.4728 32.2825 57.3942 32.306C57.331 32.3228 57.2698 32.3464 57.2117 32.3762C57.1575 32.4023 57.1114 32.4244 57.0753 32.4464C57.0518 32.4625 57.0252 32.4735 56.9971 32.4785C56.9874 32.4822 56.9767 32.4822 56.9671 32.4785C56.9574 32.4708 56.9486 32.4621 56.941 32.4524C56.9349 32.4375 56.9302 32.4221 56.927 32.4063C56.927 32.3903 56.927 32.3682 56.927 32.3482C56.9233 32.3189 56.9233 32.2892 56.927 32.2599C56.9324 32.2371 56.945 32.2167 56.963 32.2018C56.9935 32.175 57.0272 32.1521 57.0633 32.1336C57.1172 32.1067 57.1728 32.0833 57.2297 32.0634C57.2953 32.0414 57.3623 32.0239 57.4302 32.0113C57.505 31.9975 57.5808 31.9908 57.6568 31.9912C57.7788 31.9879 57.9005 32.0035 58.0177 32.0373C58.108 32.0652 58.1905 32.114 58.2584 32.1797C58.3222 32.2434 58.3679 32.323 58.3907 32.4103C58.4216 32.5157 58.4358 32.6254 58.4328 32.7352L58.4288 34.0486ZM58.0699 33.1463H57.7611C57.6748 33.1456 57.5888 33.1544 57.5044 33.1723C57.4395 33.1853 57.3776 33.2105 57.322 33.2465C57.277 33.2756 57.2409 33.3165 57.2177 33.3648C57.1918 33.4142 57.1793 33.4695 57.1816 33.5253C57.1794 33.5704 57.187 33.6155 57.2039 33.6574C57.2209 33.6993 57.2468 33.737 57.2799 33.7679C57.3544 33.8332 57.4517 33.8664 57.5506 33.8601C57.6443 33.8607 57.7365 33.8357 57.8172 33.788C57.9113 33.7266 57.9964 33.6523 58.0699 33.5674V33.1463Z" fill="#333333"/>
<path d="M60.827 32.1999C60.827 32.232 60.827 32.258 60.827 32.2801C60.8297 32.2974 60.8297 32.315 60.827 32.3322C60.8246 32.343 60.819 32.3528 60.8109 32.3603C60.8074 32.3642 60.8031 32.3674 60.7982 32.3694C60.7934 32.3715 60.7881 32.3725 60.7829 32.3723C60.7681 32.3714 60.7538 32.3673 60.7408 32.3603L60.6846 32.3403L60.6124 32.3222C60.5844 32.319 60.5562 32.319 60.5282 32.3222C60.491 32.3226 60.4543 32.3301 60.4199 32.3443C60.3787 32.3616 60.3412 32.3868 60.3096 32.4185C60.264 32.4571 60.223 32.5008 60.1873 32.5488C60.1472 32.607 60.0971 32.6731 60.047 32.7493V34.0488C60.049 34.0594 60.049 34.0703 60.047 34.0808C60.0388 34.09 60.0285 34.0969 60.0169 34.1009C60.0001 34.1072 59.9826 34.1113 59.9648 34.1129C59.9341 34.1153 59.9032 34.1153 59.8725 34.1129C59.8438 34.1154 59.815 34.1154 59.7863 34.1129C59.7672 34.111 59.7484 34.1069 59.7302 34.1009C59.7186 34.0981 59.7085 34.0909 59.7021 34.0808C59.6991 34.0704 59.6991 34.0592 59.7021 34.0488V32.0756C59.701 32.0662 59.701 32.0568 59.7021 32.0475C59.7096 32.038 59.7192 32.0304 59.7302 32.0254C59.7463 32.019 59.7631 32.0143 59.7803 32.0114H59.9427C59.9599 32.0143 59.9767 32.019 59.9928 32.0254C60.0022 32.0311 60.0104 32.0386 60.0169 32.0475C60.0189 32.0567 60.0189 32.0663 60.0169 32.0756V32.3643C60.0605 32.2928 60.1109 32.2257 60.1673 32.1638C60.2083 32.1208 60.2533 32.0819 60.3016 32.0475C60.3415 32.0217 60.3846 32.0015 60.43 31.9873C60.4706 31.9775 60.5124 31.9728 60.5543 31.9733H60.6124C60.6388 31.9745 60.6651 31.9785 60.6906 31.9853C60.7144 31.9915 60.7378 31.9988 60.7608 32.0074C60.7768 32.0108 60.7918 32.0177 60.8049 32.0274C60.8116 32.0335 60.8177 32.0402 60.823 32.0475C60.8224 32.0562 60.8224 32.0649 60.823 32.0735C60.823 32.0836 60.823 32.0976 60.823 32.1177L60.827 32.1999Z" fill="#333333"/>
<path d="M62.2166 31.4035C62.2236 31.4657 62.2064 31.5282 62.1684 31.578C62.117 31.6137 62.0542 31.6294 61.992 31.6221C61.9304 31.6295 61.8682 31.6137 61.8175 31.578C61.7798 31.5296 61.7626 31.4684 61.7694 31.4075C61.7641 31.3458 61.7819 31.2843 61.8195 31.235C61.8706 31.1984 61.9335 31.182 61.996 31.1889C62.0575 31.1828 62.1192 31.1984 62.1704 31.233C62.2074 31.2817 62.224 31.3428 62.2166 31.4035ZM62.1765 34.0425C62.1794 34.053 62.1794 34.064 62.1765 34.0745C62.1687 34.0832 62.1591 34.0901 62.1484 34.0946C62.1302 34.1008 62.1114 34.1049 62.0922 34.1066C62.0622 34.109 62.032 34.109 62.002 34.1066C61.9733 34.109 61.9445 34.109 61.9158 34.1066C61.8967 34.1044 61.8779 34.1004 61.8596 34.0946C61.8486 34.0906 61.8389 34.0837 61.8316 34.0745C61.8286 34.0641 61.8286 34.0529 61.8316 34.0425V32.0693C61.8289 32.0601 61.8289 32.0503 61.8316 32.0412C61.8392 32.0319 61.8488 32.0244 61.8596 32.0191C61.8783 32.0165 61.8972 32.0165 61.9158 32.0191C61.9444 32.0158 61.9734 32.0158 62.002 32.0191C62.032 32.0157 62.0623 32.0157 62.0922 32.0191C62.1108 32.0161 62.1298 32.0161 62.1484 32.0191C62.1588 32.025 62.1683 32.0324 62.1765 32.0412C62.1789 32.0504 62.1789 32.0601 62.1765 32.0693V34.0425Z" fill="#333333"/>
<path d="M65.128 34.0486C65.1309 34.0591 65.1309 34.0702 65.128 34.0807C65.1194 34.0894 65.1092 34.0962 65.0979 34.1007C65.081 34.1066 65.0635 34.1106 65.0458 34.1127C65.0164 34.1151 64.9869 34.1151 64.9576 34.1127C64.9269 34.1152 64.896 34.1152 64.8653 34.1127C64.8469 34.1103 64.8288 34.1063 64.8112 34.1007C64.8004 34.0962 64.7908 34.0894 64.7831 34.0807C64.7801 34.0702 64.7801 34.0591 64.7831 34.0486V32.8935C64.7852 32.8025 64.7758 32.7115 64.755 32.6228C64.742 32.5588 64.7161 32.498 64.6788 32.4443C64.6478 32.3953 64.6032 32.3563 64.5505 32.332C64.4925 32.3039 64.4285 32.2901 64.364 32.2919C64.2658 32.294 64.1708 32.3277 64.0933 32.3882C63.9853 32.4682 63.8894 32.5634 63.8086 32.6709V34.0486C63.8107 34.0592 63.8107 34.0701 63.8086 34.0807C63.8009 34.0894 63.7913 34.0962 63.7805 34.1007C63.7622 34.1063 63.7434 34.1103 63.7244 34.1127C63.6944 34.1152 63.6642 34.1152 63.6342 34.1127C63.6055 34.1153 63.5766 34.1153 63.5479 34.1127C63.5288 34.1108 63.51 34.1067 63.4918 34.1007C63.4802 34.0967 63.4699 34.0898 63.4617 34.0807C63.4606 34.07 63.4606 34.0592 63.4617 34.0486V32.0754C63.4597 32.0661 63.4597 32.0565 63.4617 32.0473C63.4677 32.038 63.476 32.0304 63.4858 32.0252C63.5033 32.0186 63.5214 32.0139 63.5399 32.0112H63.6983C63.7156 32.0137 63.7324 32.0184 63.7485 32.0252C63.7595 32.0292 63.7688 32.037 63.7745 32.0473C63.7776 32.0564 63.7776 32.0663 63.7745 32.0754V32.3381C63.8676 32.2281 63.9796 32.1357 64.1054 32.0653C64.2089 32.0095 64.3246 31.9799 64.4422 31.9791C64.5552 31.9758 64.6676 31.9978 64.7711 32.0433C64.8586 32.084 64.9344 32.1461 64.9916 32.2238C65.0481 32.3019 65.0884 32.3905 65.1099 32.4844C65.1367 32.6029 65.1495 32.724 65.148 32.8454L65.128 34.0486Z" fill="#333333"/>
<path d="M68.0074 32.1596C68.0107 32.1971 68.0052 32.2348 67.9914 32.2699C67.9859 32.2802 67.9779 32.2889 67.9681 32.2952C67.9582 32.3016 67.9469 32.3052 67.9353 32.3059H67.6525C67.7012 32.3545 67.7383 32.4134 67.7608 32.4784C67.7809 32.5434 67.791 32.611 67.7909 32.6789C67.7924 32.7816 67.7748 32.8836 67.7388 32.9797C67.7013 33.0649 67.6462 33.1411 67.5771 33.2034C67.5079 33.2656 67.4264 33.3124 67.3377 33.3407C67.2376 33.3745 67.1326 33.3915 67.0269 33.3908C66.949 33.3905 66.8714 33.3798 66.7963 33.3587C66.7371 33.3423 66.6814 33.3151 66.6319 33.2785C66.6042 33.304 66.5818 33.3347 66.5657 33.3688C66.5485 33.4051 66.5396 33.4448 66.5397 33.4851C66.5399 33.5105 66.5466 33.5356 66.5592 33.5577C66.5719 33.5798 66.59 33.5983 66.6119 33.6114C66.6685 33.6466 66.7336 33.666 66.8003 33.6675L67.3157 33.6876C67.4072 33.6901 67.4981 33.7035 67.5864 33.7277C67.6629 33.7489 67.7344 33.785 67.7969 33.834C67.8554 33.8768 67.9034 33.9323 67.9373 33.9964C67.9716 34.067 67.9894 34.1445 67.9894 34.223C67.9883 34.313 67.9685 34.4018 67.9312 34.4837C67.8921 34.5688 67.8321 34.6426 67.7568 34.6983C67.6681 34.7667 67.5665 34.8165 67.458 34.8447C67.3183 34.8832 67.1738 34.9014 67.0289 34.8988C66.894 34.9022 66.7592 34.888 66.6279 34.8567C66.5301 34.837 66.4364 34.8003 66.3512 34.7484C66.2858 34.7069 66.2325 34.6487 66.1968 34.58C66.1658 34.5141 66.1494 34.4422 66.1487 34.3694C66.1476 34.3213 66.1537 34.2733 66.1667 34.227C66.1776 34.1819 66.1952 34.1386 66.2189 34.0987C66.2443 34.056 66.2753 34.0169 66.3111 33.9824C66.3486 33.9422 66.3896 33.9053 66.4334 33.8721C66.3683 33.8414 66.3133 33.7927 66.275 33.7317C66.2409 33.6784 66.2228 33.6165 66.2229 33.5532C66.2209 33.4702 66.2403 33.3881 66.279 33.3146C66.3126 33.2409 66.358 33.1732 66.4134 33.1141C66.3679 33.0596 66.332 32.998 66.3071 32.9316C66.2786 32.8526 66.2657 32.7689 66.269 32.6849C66.2663 32.5814 66.2847 32.4784 66.3231 32.3821C66.3591 32.2968 66.4132 32.2201 66.4815 32.1576C66.5514 32.0944 66.6332 32.046 66.7221 32.0152C66.8216 31.9817 66.926 31.9647 67.0309 31.965C67.0866 31.9647 67.1423 31.9687 67.1974 31.9771C67.2474 31.9823 67.2969 31.991 67.3457 32.0031H67.9473C67.9592 32.0027 67.971 32.0059 67.9811 32.0123C67.9911 32.0188 67.9989 32.0282 68.0034 32.0392C68.0163 32.0745 68.0218 32.1121 68.0195 32.1495L68.0074 32.1596ZM67.6305 34.2491C67.6328 34.2094 67.6243 34.1697 67.606 34.1344C67.5876 34.0991 67.5601 34.0695 67.5262 34.0485C67.4414 33.9982 67.344 33.9732 67.2455 33.9764L66.7342 33.9563C66.6945 33.9893 66.657 34.0248 66.6219 34.0626C66.5933 34.0902 66.569 34.122 66.5497 34.1568C66.5326 34.1839 66.5204 34.2138 66.5136 34.2451C66.5073 34.2747 66.504 34.305 66.5036 34.3353C66.503 34.3817 66.5165 34.4273 66.5423 34.4659C66.5681 34.5046 66.6049 34.5345 66.648 34.5519C66.7745 34.6057 66.9116 34.6304 67.049 34.6241C67.1408 34.6262 67.2325 34.6161 67.3217 34.594C67.3862 34.5765 67.4473 34.548 67.5021 34.5098C67.5442 34.4774 67.5779 34.4355 67.6004 34.3874C67.6191 34.3437 67.6293 34.2967 67.6305 34.2491ZM67.45 32.6849C67.453 32.6277 67.4446 32.5704 67.4253 32.5163C67.406 32.4623 67.3763 32.4126 67.3377 32.3701C67.2698 32.3137 67.1879 32.2769 67.1006 32.2635C67.0134 32.25 66.9242 32.2606 66.8425 32.2939C66.7921 32.3154 66.7475 32.3484 66.7121 32.3902C66.677 32.4318 66.6511 32.4803 66.6359 32.5325C66.619 32.5857 66.6102 32.6412 66.6099 32.697C66.6118 32.7674 66.6309 32.8363 66.6655 32.8977C66.7001 32.9591 66.7492 33.0112 66.8085 33.0493C66.8677 33.0874 66.9354 33.1105 67.0056 33.1166C67.0759 33.1226 67.1465 33.1114 67.2114 33.084C67.2614 33.0629 67.306 33.0306 67.3417 32.9898C67.377 32.9487 67.4036 32.901 67.4199 32.8494C67.4375 32.7943 67.4463 32.7368 67.446 32.6789L67.45 32.6849Z" fill="#333333"/>
<path d="M64.0773 23.4206C64.5357 23.3296 64.9773 23.1687 65.3867 22.9434C65.6931 22.7575 65.9696 22.5262 66.2068 22.2576H56.1069V23.4748H64.2418L64.0773 23.4206ZM63.0186 21.0143C62.8711 21.2099 62.6571 21.3447 62.4171 21.3933C62.0942 21.4655 61.8456 21.5136 61.6591 21.5377H66.682C66.8603 21.1558 66.9638 20.7433 66.9868 20.3225H63.2552C63.2559 20.573 63.1726 20.8166 63.0186 21.0143ZM59.8465 19.1092H61.4887C62.1704 19.1092 62.6356 19.2115 62.8823 19.4221C62.9508 19.4808 63.0115 19.5482 63.0627 19.6226H66.9728C66.9369 19.1991 66.8198 18.7866 66.6279 18.4074H56.1009V19.6106H59.8405L59.8465 19.1092ZM42.6343 18.4074H31.3013V19.6106H42.6343V18.4074ZM23.5594 19.009C23.8424 18.8033 24.1891 18.7046 24.5379 18.7302C24.9805 18.7045 25.418 18.8358 25.7731 19.1012C25.9455 19.2463 26.0827 19.4287 26.1741 19.6346H29.8134C29.7316 19.2061 29.5856 18.7923 29.3803 18.4074H20.2249C20.0078 18.7768 19.8667 19.1859 19.8098 19.6106H23.2326C23.2392 19.4901 23.2718 19.3725 23.3282 19.2659C23.3846 19.1593 23.4635 19.0661 23.5594 18.9929V19.009ZM35.105 27.343H38.8326V26.1077H35.105V27.343ZM56.1069 27.343H59.8465V26.1077H56.1069V27.343ZM66.6118 26.1238H62.3389L62.9966 27.343H67.2435L66.6118 26.1238ZM64.9616 16.9816C64.352 16.7824 63.4711 16.6835 62.3188 16.6848H56.1029V17.7075H66.1286C65.8075 17.3668 65.4064 17.1117 64.9616 16.9656V16.9816ZM56.1069 28.7587H59.8465V28.0328H56.1069V28.7587ZM67.6104 28.0328H63.3815L63.7645 28.7407H67.9753L67.6104 28.0328ZM50.8695 28.0328L51.082 28.7407H54.984L54.7193 28.0328H50.8695ZM35.105 28.7407H38.8326V28.0328H35.105V28.7407ZM42.6343 16.6668H31.3013V17.6895H42.6343V16.6668ZM28.4359 17.3245C27.6258 16.7497 26.4508 16.4623 24.9109 16.4623C23.6537 16.4623 22.6671 16.6207 21.9433 16.9375C21.5138 17.1188 21.1195 17.374 20.7783 17.6915H28.857C28.7271 17.5577 28.5863 17.4349 28.4359 17.3245ZM50.4584 16.6688H46.392L46.007 17.6915H50.8394L50.4584 16.6688ZM41.8483 28.7427H45.6581L45.8686 28.0348H42.115L41.8483 28.7427ZM24.9329 28.9432C26.0999 28.9432 27.0677 28.7741 27.8364 28.4359C28.0923 28.3266 28.3368 28.1923 28.5663 28.0348H20.9928C21.8216 28.6444 23.135 28.9492 24.9329 28.9492V28.9432ZM53.2756 24.1826H43.5687L43.1136 25.3979H53.7408L53.2756 24.1826ZM56.1069 25.3979H59.8465V24.1826H56.1069V25.3979ZM48.9104 21.5457H52.2851L51.8319 20.3305H48.5395L48.9104 21.5457ZM26.2182 26.198C25.8662 26.4667 25.429 26.5991 24.9871 26.571C24.4853 26.5918 23.9934 26.4269 23.6055 26.1077H19.6233C19.7813 26.5467 20.0073 26.9582 20.293 27.3269H29.3503C29.4509 27.2093 29.544 27.0854 29.629 26.956C29.8038 26.6917 29.9452 26.4067 30.0501 26.1077H26.3085C26.2804 26.1398 26.2503 26.1679 26.2182 26.198ZM66.1667 25.2495C66.0171 24.983 65.8418 24.7318 65.6433 24.4995C65.5471 24.3772 65.4589 24.2729 65.3787 24.1826H61.1679C61.4133 24.4397 61.6164 24.7341 61.7694 25.0549L61.9539 25.3979H66.2429L66.1667 25.2495ZM59.8465 20.3305H56.1069V21.5457H59.8465V20.3305ZM53.9955 26.1077H42.8409L42.3837 27.3269H46.0792L46.2536 26.7494H50.4805L50.6569 27.3269H54.4547L53.9955 26.1077ZM51.1061 18.4074H45.7403L45.2811 19.6106H51.5652L51.1061 18.4074ZM27.9467 21.5517C26.9126 21.1486 25.8442 20.8399 24.7545 20.6293C24.4109 20.5674 24.0748 20.4693 23.7519 20.3365H19.8018C19.8379 20.7646 19.968 21.1796 20.1828 21.5517H27.9467ZM25.6949 24.1826C25.8921 24.2533 26.0759 24.3571 26.2383 24.4895C26.3621 24.5916 26.4621 24.7195 26.5314 24.8643C26.6006 25.009 26.6375 25.1672 26.6393 25.3277C26.6393 25.3537 26.6393 25.3758 26.6393 25.3979H30.2245C30.2511 25.2045 30.2645 25.0095 30.2646 24.8143C30.265 24.6026 30.2469 24.3912 30.2105 24.1826H25.6949ZM35.105 21.5457H38.8326V20.3305H35.105V21.5457ZM49.4959 23.4728H53.0089L52.5538 22.2556H49.127L49.4959 23.4728ZM35.105 25.3979H38.8326V24.1826H35.105V25.3979ZM22.9779 24.7361H19.3306C19.3495 24.9551 19.3817 25.1727 19.4268 25.3878H23.0942C23.0219 25.1779 22.9827 24.9581 22.9779 24.7361ZM35.105 23.4728H38.8326V22.2556H35.105V23.4728ZM47.6291 22.2556H44.2906L43.8314 23.4728H47.2582L47.6291 22.2556ZM29.1197 22.2556H20.7622C20.7869 22.2805 20.813 22.3039 20.8404 22.3257C21.3497 22.7723 22.1144 23.1546 23.1343 23.4728H30.014C29.9496 23.3193 29.8746 23.1706 29.7894 23.0276C29.6111 22.7344 29.3847 22.4734 29.1197 22.2556ZM48.2167 20.3305H45.0084L44.5533 21.5457H47.8417L48.2167 20.3305Z" fill="#36498A"/>
<path d="M17.57 0.15918L11.7371 12.0506L0.0250244 13.5746L7.6566 22.6265L5.81187 35.8354L16.5334 30.1303L24.9028 35.9056L26.148 35.3501L16.5093 27.2928L8.37043 31.6804L10.4919 22.0049L4.65891 15.1006L13.2149 13.8975L17.5018 5.30878L22.8055 14.8921L23.4952 14.2223L17.57 0.15918Z" fill="#36498A"/>
</svg>
