<svg width="21" height="17" viewBox="0 0 21 17" fill="none" xmlns="http://www.w3.org/2000/svg">
<path d="M14.0093 13.6688H2.38616C1.85503 13.6688 1.372 13.4517 1.02259 13.1022C0.673032 12.7526 0.455933 12.2697 0.455933 11.7386V2.90997C0.455933 2.37884 0.673047 1.89581 1.02259 1.54639C1.37214 1.19684 1.85503 0.979736 2.38616 0.979736H17.2689C17.8001 0.979736 18.2831 1.19685 18.6325 1.54639C18.9821 1.89594 19.1992 2.37884 19.1992 2.90997V10.6987C19.3361 10.7987 19.4653 10.9095 19.5849 11.0291C20.2032 11.7014 20.5442 12.4165 20.5442 13.3451C20.5442 14.2495 20.1773 15.0687 19.5849 15.661C18.9925 16.2534 18.1733 16.6203 17.2689 16.6203C16.3655 16.6203 15.5469 16.2534 14.9542 15.661C14.4323 15.1403 14.0857 14.444 14.0095 13.669L14.0093 13.6688ZM4.58936 9.42595C4.67585 9.38151 4.76866 9.34459 4.86614 9.31627C5.00491 9.27619 5.1488 9.25449 5.29375 9.25449C5.71591 9.25449 6.09923 9.4264 6.37675 9.7035C6.65504 9.98239 6.82712 10.3655 6.82712 10.7877C6.82712 11.2099 6.6552 11.5933 6.3781 11.8707C6.10072 12.1493 5.71711 12.3211 5.2939 12.3211C5.14896 12.3211 5.00507 12.2994 4.8663 12.2593C4.76912 12.2313 4.67645 12.1941 4.58997 12.1496C4.37903 12.2593 4.13945 12.3211 3.88558 12.3211C3.46233 12.3211 3.07859 12.1493 2.80137 11.8721C2.52399 11.5947 2.35236 11.2111 2.35236 10.7879C2.35236 10.3646 2.52412 9.98086 2.80137 9.70365L2.82156 9.68497C3.09729 9.41889 3.47292 9.25466 3.88575 9.25466C4.13932 9.25466 4.37858 9.31659 4.58968 9.42612L4.58936 9.42595ZM5.14471 11.6616C5.19218 11.669 5.24189 11.673 5.29373 11.673C5.53811 11.673 5.7599 11.5738 5.91974 11.4139C6.07975 11.2546 6.17889 11.0327 6.17889 10.7879C6.17889 10.5429 6.0796 10.321 5.9202 10.1612C5.76049 10.0018 5.53855 9.90255 5.29357 9.90255C5.24173 9.90255 5.19171 9.90661 5.14425 9.9143C5.31722 10.1628 5.41847 10.4638 5.41847 10.7879C5.41847 11.1121 5.31722 11.4138 5.1444 11.6616L5.14471 11.6616ZM4.51207 10.1612C4.35236 10.0018 4.13042 9.90254 3.88543 9.90254C3.64798 9.90254 3.43176 9.99596 3.27311 10.1472L3.2594 10.1618C3.09939 10.3219 3.00025 10.5435 3.00025 10.7879C3.00025 11.0322 3.09954 11.254 3.2594 11.4139C3.41941 11.5739 3.64105 11.673 3.88542 11.673C4.1298 11.673 4.35159 11.5737 4.51143 11.4139C4.67144 11.2546 4.77058 11.0327 4.77058 10.7879C4.77058 10.5429 4.67129 10.321 4.51189 10.1612L4.51207 10.1612ZM15.5709 13.5789C15.4451 13.4526 15.4458 13.2477 15.5721 13.1219C15.6983 12.9961 15.9033 12.9968 16.0291 13.1231L16.7787 13.8728L18.5094 12.1314C18.6352 12.0051 18.84 12.0044 18.9664 12.1302C19.0927 12.256 19.0934 12.4608 18.9676 12.5872L17.0086 14.5585C16.881 14.6856 16.6762 14.6848 16.5504 14.5585L15.5711 13.5789L15.5709 13.5789ZM17.2689 10.7176C16.5431 10.7176 15.8856 11.0117 15.4105 11.4865C14.9358 11.9616 14.6417 12.6189 14.6417 13.3449C14.6417 14.0705 14.9361 14.7276 15.4111 15.2026C15.8856 15.678 16.5431 15.9721 17.2689 15.9721C17.9945 15.9721 18.6516 15.6777 19.1266 15.2026C19.6017 14.7276 19.8961 14.0704 19.8961 13.3449C19.8961 12.627 19.6083 11.9762 19.1427 11.5022C18.6043 10.9978 18.0182 10.7177 17.2689 10.7177L17.2689 10.7176ZM18.5511 10.3301V6.31019H1.10409V11.7387C1.10409 12.091 1.24873 12.4119 1.48091 12.6441C1.71309 12.8763 2.03402 13.0209 2.3863 13.0209H14.0094C14.0857 12.2467 14.4322 11.5512 14.9529 11.0303C15.5468 10.4367 16.3654 10.0698 17.2689 10.0698C17.7237 10.0698 18.1572 10.1626 18.551 10.3303L18.5511 10.3301ZM18.5511 5.66219V4.30571H1.10409V5.66219H18.5511ZM18.5511 3.65767V2.90989C18.5511 2.55762 18.4065 2.2367 18.1743 2.0045C17.9421 1.77232 17.6212 1.62768 17.2689 1.62768H2.3861C2.03384 1.62768 1.71292 1.77232 1.48072 2.0045C1.24852 2.23668 1.10389 2.55762 1.10389 2.90989V3.65767H18.5511Z" fill="white"/>
</svg>
