<svg width="21" height="18" viewBox="0 0 21 18" fill="none" xmlns="http://www.w3.org/2000/svg">
<path d="M4.50258 0C4.18454 0 3.87181 0.112571 3.65096 0.333243C3.43011 0.553916 3.31771 0.866348 3.31771 1.18487V2.84364H2.13285C1.88473 2.84364 1.65894 3.06943 1.65894 3.31754V7.10919H0.429602C0.196531 7.13118 -0.0010117 7.34921 3.89873e-06 7.58327V12.3227C3.89873e-06 12.5708 0.225801 12.7966 0.473908 12.7966H6.39824C7.96543 12.7966 9.24204 11.5202 9.24204 9.953C9.24204 8.3858 7.96543 7.10919 6.39824 7.10919H2.60658V3.79165H18.2468C18.5905 3.79165 18.9159 3.70173 19.1946 3.5399L19.1948 7.82023C19.1913 8.07066 19.4183 8.30091 19.6687 8.30091C19.9191 8.30091 20.1462 8.07064 20.1426 7.82023V1.8959C20.1426 1.88086 20.1429 1.86648 20.1426 1.85144V1.83656C20.1107 0.821934 19.2688 0.000102989 18.2468 0.000102989L4.50258 0ZM4.50258 0.947808H18.247C18.7803 0.947808 19.1948 1.36238 19.1948 1.89562C19.1948 2.42889 18.7803 2.84342 18.247 2.84342H4.2656V1.18465C4.2656 1.07357 4.29734 1.02696 4.32478 0.999519C4.35222 0.972244 4.39156 0.947943 4.50248 0.947943L4.50258 0.947808ZM0.947981 8.057H6.39836C7.45679 8.057 8.29419 8.89424 8.29419 9.95283C8.29419 11.0113 7.45695 11.8487 6.39836 11.8487H0.947981V8.057ZM6.63534 9.24187C6.24837 9.24187 5.92437 9.56569 5.92437 9.95283C5.92437 10.3398 6.24836 10.6638 6.63534 10.6638C7.02231 10.6638 7.3463 10.3398 7.3463 9.95283C7.3463 9.56586 7.02231 9.24187 6.63534 9.24187ZM19.6612 9.24187C19.4131 9.24583 19.1908 9.47527 19.1948 9.72339V9.95299C19.1913 10.2034 19.4183 10.4337 19.6687 10.4337C19.9191 10.4337 20.1462 10.2034 20.1426 9.95299V9.72339C20.1466 9.47031 19.9143 9.23806 19.6612 9.24204V9.24187ZM16.8251 10.4269C14.8676 10.4269 13.2705 12.024 13.2705 13.9815C13.2705 15.939 14.8676 17.5361 16.8251 17.5361C18.7825 17.5361 20.3796 15.939 20.3796 13.9815C20.3796 12.024 18.7825 10.4269 16.8251 10.4269ZM16.8251 11.3747C18.2703 11.3747 19.4318 12.5361 19.4318 13.9815C19.4318 15.4267 18.2705 16.5883 16.8251 16.5883C15.3799 16.5883 14.2183 15.4269 14.2183 13.9815C14.2183 12.5363 15.3796 11.3747 16.8251 11.3747ZM15.5883 12.5521C15.4087 12.5696 15.2451 12.6987 15.1861 12.8692C15.1272 13.0396 15.1763 13.2423 15.3068 13.3667L16.9655 15.0255C17.1571 15.2143 17.5143 15.1882 17.6765 14.9736L18.3875 14.0258C18.5541 13.8297 18.5172 13.4957 18.3117 13.3406C18.1064 13.1856 17.775 13.2416 17.6321 13.4557L17.2469 13.9666L15.9731 12.6928C15.8744 12.5916 15.7286 12.5384 15.5879 12.5521L15.5883 12.5521ZM2.0808 13.737C1.84789 13.7626 1.65365 13.9841 1.65862 14.2183V16.5881C1.65862 16.8362 1.88442 17.062 2.13253 17.062H12.5593C12.8098 17.0655 13.04 16.8385 13.04 16.5881C13.04 16.3376 12.8098 16.1105 12.5593 16.1142H2.60647V14.2183C2.61226 13.9496 2.34794 13.7076 2.08064 13.737H2.0808Z" fill="white"/>
</svg>
